
<svg xmlns="http://www.w3.org/2000/svg" xmlns:xlink="http://www.w3.org/1999/xlink" x="0px" y="0px"
	 width="30px" height="30px" viewBox="0 0 30 30" enable-background="new 0 0 30 30" xml:space="preserve">
<g>
	<polygon fill="#DCDBDB" points="8.966,14.315 8.935,14.221 8.911,14.097 8.893,14.03 8.893,13.944 8.893,13.842 8.893,13.75 
		8.922,13.641 8.953,13.524 8.993,13.404 9.046,13.268 9.116,13.127 9.216,12.986 9.216,12.888 9.226,12.794 9.24,12.669 
		9.283,12.528 9.322,12.376 9.354,12.305 9.39,12.24 9.437,12.168 9.487,12.113 9.487,12.015 9.487,11.902 9.487,11.765 
		9.517,11.584 9.545,11.376 9.598,11.126 9.671,10.868 9.725,10.724 9.778,10.569 9.836,10.424 9.906,10.268 9.978,10.099 
		10.06,9.938 10.151,9.769 10.268,9.599 10.321,9.503 10.379,9.423 10.503,9.243 10.631,9.063 10.777,8.879 10.933,8.7 
		11.102,8.523 11.278,8.34 11.492,8.145 11.628,8.026 11.793,7.897 11.96,7.784 12.142,7.674 12.316,7.578 12.512,7.498 
		12.721,7.398 12.928,7.33 13.135,7.26 13.359,7.189 13.582,7.136 13.817,7.092 14.055,7.054 14.29,7.022 14.525,6.991 
		14.776,6.976 15.014,6.976 15.261,6.976 15.515,6.976 15.761,7.007 16.01,7.037 16.262,7.063 16.496,7.119 16.744,7.173 
		16.977,7.233 17.23,7.301 17.463,7.384 17.688,7.478 17.926,7.578 18.143,7.686 18.354,7.807 18.561,7.941 18.74,8.065 
		18.82,8.134 18.908,8.186 19.074,8.327 19.213,8.462 19.354,8.603 19.488,8.758 19.602,8.908 19.734,9.063 19.826,9.23 
		19.918,9.379 20.02,9.552 20.102,9.701 20.242,10.019 20.311,10.184 20.363,10.337 20.416,10.501 20.465,10.657 20.498,10.789 
		20.543,10.948 20.619,11.229 20.666,11.474 20.699,11.711 20.727,11.902 20.768,12.193 20.779,12.24 20.811,12.293 20.904,12.444 
		20.963,12.546 21.016,12.652 21.084,12.766 21.143,12.902 21.18,13.042 21.223,13.196 21.254,13.353 21.268,13.43 21.279,13.524 
		21.279,13.608 21.268,13.69 21.268,13.792 21.244,13.891 21.201,14.083 21.148,14.179 21.113,14.289 21.113,14.315 21.129,14.35 
		21.18,14.43 21.398,14.752 21.57,14.994 21.654,15.157 21.766,15.333 21.861,15.527 21.975,15.735 22.086,15.969 22.211,16.232 
		22.281,16.395 22.348,16.555 22.404,16.721 22.457,16.871 22.5,17.029 22.543,17.176 22.598,17.465 22.639,17.76 22.668,18.023 
		22.668,18.166 22.668,18.281 22.668,18.391 22.65,18.521 22.621,18.748 22.582,18.951 22.521,19.135 22.5,19.211 22.457,19.301 
		22.422,19.363 22.377,19.441 22.334,19.49 22.281,19.551 22.234,19.604 22.186,19.646 22.125,19.674 22.07,19.701 22.027,19.713 
		21.986,19.713 21.959,19.713 21.914,19.701 21.832,19.658 21.795,19.631 21.754,19.604 21.711,19.564 21.668,19.521 21.596,19.441 
		21.51,19.326 21.443,19.211 21.375,19.115 21.309,19.006 21.217,18.813 21.113,18.611 21.1,18.605 21.084,18.605 21.041,18.637 
		21.016,18.688 20.975,18.756 20.904,18.951 20.797,19.23 20.66,19.564 20.557,19.732 20.447,19.906 20.32,20.102 20.184,20.295 
		20.113,20.383 20.029,20.477 19.836,20.668 19.852,20.686 19.879,20.713 19.975,20.77 20.381,20.965 20.557,21.064 20.727,21.16 
		20.891,21.281 21.041,21.408 21.113,21.463 21.166,21.529 21.223,21.605 21.268,21.688 21.293,21.754 21.324,21.836 21.336,21.906 
		21.35,21.988 21.336,22.045 21.336,22.102 21.324,22.16 21.293,22.213 21.279,22.252 21.254,22.305 21.18,22.404 21.113,22.482 
		21.061,22.545 21.016,22.588 20.904,22.67 20.779,22.742 20.643,22.809 20.498,22.875 20.336,22.938 20.252,22.965 20.176,22.984 
		19.988,23.029 19.795,23.07 19.602,23.111 19.391,23.146 19.172,23.156 18.949,23.182 18.727,23.182 18.494,23.182 18.256,23.182 
		18.006,23.168 17.773,23.146 17.521,23.111 17.273,23.084 17.012,23.049 16.756,22.984 16.509,22.938 16.262,22.867 16.01,22.777 
		15.761,22.703 15.631,22.66 15.515,22.617 15.442,22.588 15.369,22.574 15.275,22.574 15.163,22.574 14.925,22.557 14.804,22.545 
		14.649,22.527 14.549,22.617 14.413,22.703 14.229,22.793 14.026,22.902 13.902,22.965 13.773,23.014 13.488,23.129 13.333,23.168 
		13.169,23.211 12.944,23.256 12.803,23.268 12.654,23.279 12.498,23.295 12.316,23.303 12.142,23.303 11.96,23.303 11.575,23.303 
		11.156,23.295 10.75,23.256 10.543,23.227 10.345,23.197 10.151,23.168 9.958,23.129 9.778,23.07 9.598,23.029 9.437,22.965 
		9.283,22.902 9.141,22.836 9.017,22.76 8.893,22.67 8.852,22.627 8.796,22.574 8.755,22.527 8.716,22.475 8.682,22.422 
		8.655,22.367 8.617,22.252 8.602,22.195 8.585,22.129 8.585,22.068 8.602,22.002 8.602,21.934 8.617,21.865 8.617,21.824 
		8.617,21.729 8.624,21.658 8.655,21.576 8.682,21.49 8.731,21.393 8.767,21.355 8.796,21.309 8.874,21.217 8.935,21.168 
		8.993,21.135 9.046,21.09 9.131,21.064 9.199,21.021 9.283,20.979 9.38,20.949 9.477,20.92 9.588,20.896 9.695,20.881 
		9.822,20.863 9.958,20.855 9.994,20.844 10.001,20.844 10.018,20.828 10.018,20.811 9.994,20.777 9.921,20.744 9.739,20.586 
		9.618,20.488 9.477,20.363 9.334,20.227 9.186,20.049 9.017,19.852 8.953,19.744 8.868,19.631 8.796,19.502 8.731,19.363 
		8.643,19.23 8.585,19.078 8.518,18.924 8.449,18.756 8.398,18.592 8.352,18.391 8.338,18.385 8.323,18.385 8.316,18.369 
		8.299,18.369 8.27,18.385 8.255,18.391 8.235,18.426 8.229,18.467 8.213,18.502 8.188,18.563 8.104,18.711 8.062,18.801 
		7.994,18.879 7.921,18.973 7.841,19.078 7.756,19.17 7.657,19.26 7.564,19.344 7.463,19.41 7.351,19.48 7.244,19.521 7.118,19.551 
		6.995,19.564 6.982,19.564 6.965,19.564 6.937,19.551 6.915,19.502 6.877,19.48 6.83,19.363 6.8,19.301 6.769,19.211 6.743,19.115 
		6.729,19.023 6.689,18.813 6.674,18.688 6.674,18.563 6.674,18.281 6.689,17.979 6.714,17.824 6.743,17.664 6.769,17.492 
		6.815,17.33 6.869,17.146 6.922,16.969 6.995,16.781 7.062,16.607 7.157,16.428 7.244,16.232 7.351,16.052 7.477,15.854 
		7.605,15.678 7.739,15.481 7.851,15.346 7.994,15.188 8.144,15.03 8.213,14.956 8.299,14.871 8.422,14.763 8.549,14.655 
		8.755,14.47 8.911,14.357 	"/>
</g>
</svg>
