<?xml version="1.0" encoding="utf-8"?>
<!-- Generator: Adobe Illustrator 15.0.0, SVG Export Plug-In . SVG Version: 6.00 Build 0)  -->
<!DOCTYPE svg PUBLIC "-//W3C//DTD SVG 1.1//EN" "http://www.w3.org/Graphics/SVG/1.1/DTD/svg11.dtd">
<svg version="1.1" id="图层_1" xmlns="http://www.w3.org/2000/svg" xmlns:xlink="http://www.w3.org/1999/xlink" x="0px" y="0px"
	 width="30px" height="30px" viewBox="0 0 30 30" enable-background="new 0 0 30 30" xml:space="preserve">
<path fill-rule="evenodd" clip-rule="evenodd" fill="#DBDBDB" d="M21.786,18.23l0.212-0.728l-3.877-1.354l-0.233,0.72L21.786,18.23z
	 M17.617,17.418c0,0-0.09,0.454-0.117,0.52c-0.069,0.237-0.096,0.146-0.188,0.122c0,0-1.93-0.612-3.093-1.771l-0.558-0.556
	c0,0-1.523-1.781-1.629-3.095c-0.012-0.146-0.121-0.029,0.079-0.113c0.125-0.052,0.625-0.258,0.625-0.258l-2.031-3.695l-0.373,0.171
	c0,0-2.774,0.273-2.238,2.233L8.571,12.4c2.953,5.161,8.932,8.948,8.932,8.948l1.195,0.551c1.849,0.573,2.616-2.2,2.616-2.2
	l0.236-0.876L17.617,17.418z M13.275,12.041l0.595-0.216l-1.932-3.822l-0.671,0.309L13.275,12.041z"/>
</svg>
