<svg xmlns="http://www.w3.org/2000/svg" xmlns:xlink="http://www.w3.org/1999/xlink" x="0px" y="0px"
	 width="30px" height="30px" viewBox="0 0 30 30" enable-background="new 0 0 30 30" xml:space="preserve">
  <defs>
    <style>

      .cls-2 {
        fill: #dcdbdb;
      }
    </style>
  </defs>
  <path d="M21.608,7.789 C21.608,7.789 21.603,7.789 21.603,7.789 C21.506,8.479 21.172,8.534 20.774,8.534 C20.298,8.534 19.914,8.228 19.914,7.740 C19.914,7.317 20.085,6.888 20.085,6.888 C20.135,6.710 20.537,5.604 19.819,3.951 C18.503,1.687 15.853,1.654 15.540,1.783 C15.225,1.910 14.759,1.974 14.759,1.974 C14.280,1.974 13.896,1.575 13.896,1.089 C13.896,0.682 14.162,0.338 14.525,0.232 C14.525,0.232 14.533,0.219 14.546,0.216 C14.572,0.211 14.599,0.183 14.627,0.180 C14.996,0.108 16.311,-0.156 17.591,0.150 C19.880,0.698 23.021,2.965 21.608,7.789 ZM15.353,4.532 C15.025,4.532 14.761,4.260 14.761,3.926 C14.761,3.586 15.025,3.314 15.353,3.314 C15.353,3.314 19.053,2.613 18.611,6.686 C18.611,6.710 18.609,6.729 18.603,6.751 C18.562,7.039 18.314,7.260 18.022,7.260 C17.692,7.260 17.425,6.990 17.425,6.654 C17.425,6.654 18.011,3.931 15.353,4.532 ZM15.654,5.683 C16.656,6.710 15.819,8.123 15.819,8.123 C15.819,8.123 15.404,8.595 16.259,8.764 C17.117,8.940 19.813,10.220 18.330,13.455 C16.845,16.685 11.951,18.256 8.325,17.965 C4.878,17.687 0.447,16.515 -0.011,12.242 C-0.011,12.242 -0.253,10.306 1.579,7.802 C1.579,7.802 4.213,4.033 7.280,2.958 C10.351,1.888 10.709,3.699 10.709,4.769 C10.546,5.678 10.241,6.211 11.393,5.845 C11.393,5.845 14.412,4.411 15.654,5.683 ZM8.593,8.012 C4.994,8.182 2.083,10.158 2.083,12.622 C2.083,15.083 4.994,16.933 8.593,16.760 C12.196,16.593 15.112,14.283 15.112,11.822 C15.112,9.363 12.196,7.842 8.593,8.012 ZM5.644,15.204 C4.636,14.644 4.673,13.544 4.673,13.544 C4.673,13.544 4.255,10.069 7.875,9.635 C11.501,9.204 12.149,12.752 11.046,14.210 C9.944,15.668 7.762,16.380 5.644,15.204 ZM6.902,12.361 C6.225,12.433 5.741,13.037 5.741,13.614 C5.741,14.194 6.286,14.593 6.962,14.512 C7.636,14.433 8.183,13.900 8.183,13.323 C8.183,12.743 7.678,12.285 6.902,12.361 ZM9.286,11.943 C9.165,11.738 8.886,11.679 8.617,11.883 C8.386,12.056 8.339,12.385 8.465,12.590 C8.586,12.800 8.867,12.824 9.096,12.649 C9.320,12.468 9.407,12.153 9.286,11.943 Z" id="path-1" class="cls-2" fill-rule="evenodd"/>
</svg>
